<svg id="Layer_1" data-name="Layer 1" xmlns="http://www.w3.org/2000/svg" width="180" height="44" viewBox="0 0 180 44">
  <defs>
    <style>
      .cls-1 {
        fill: #7bccc8;
      }

      .cls-2 {
        fill: #fff;
      }

      .cls-3 {
        fill: #cddb00;
      }
    </style>
  </defs>
  <g>
    <path id="outline" class="cls-1" d="M170.948,0V43.136h-11.12V38.58a15.457,15.457,0,0,1-11.979,5.139,16.116,16.116,0,0,1-14.034-7.99,14.023,14.023,0,0,1-26.682-5.95V22.148h-2.448V43.136H84.825a13.824,13.824,0,0,1-4.114.632,15.745,15.745,0,0,1-14.22-8.922A15.871,15.871,0,0,1,39.282,37v6.132H28.163V23.253l-7.22,19.883h-9.32L0,11.126H11.842L16.3,23.894l4.421-12.768h7.447a6.007,6.007,0,1,1,11.117,0h0v6.017a15.68,15.68,0,0,1,12.884-6.649,14.388,14.388,0,0,1,5.153.95V0H68.293V16.584a15.864,15.864,0,0,1,25.321.437V13.746c0-5.869,2.19-9.066,4.027-10.714A11.247,11.247,0,0,1,105.493.154a27.235,27.235,0,0,1,4.973.474v10.5H118.2V29.779a2.848,2.848,0,1,0,5.691,0V11.126h11.119v5.687a15.856,15.856,0,0,1,12.592-6.319,15.64,15.64,0,0,1,12.222,5.967V0Z"/>
    <path id="white" class="cls-2" d="M23.206,14.621h4.373l-9.086,25.02H14.072L4.987,14.621H9.36L16.307,34.54Zm8.452,25.02h4.129V14.621H31.658ZM60.814,3.5H64.8V27.058c0,7.433-5.442,13.166-12.535,13.166-6.947,0-12.583-5.636-12.583-13.166,0-7.482,5.587-13.069,12.486-13.069a11.01,11.01,0,0,1,8.648,4.227Zm-.1,23.563c0-5.15-3.838-9.279-8.454-9.279-4.664,0-8.453,4.081-8.453,9.279,0,5.3,3.789,9.376,8.453,9.376C56.83,36.434,60.717,32.256,60.717,27.058Zm32.626.1V39.641H89.359V35.754a10.652,10.652,0,0,1-8.648,4.519c-6.9,0-12.486-5.636-12.486-13.118,0-7.53,5.636-13.166,12.583-13.166C87.9,13.989,93.343,19.77,93.343,27.155Zm-4.081,0c0-5.2-3.887-9.376-8.454-9.376-4.664,0-8.453,4.129-8.453,9.376s3.789,9.279,8.453,9.279C85.424,36.434,89.262,32.305,89.262,27.155ZM99.975,5.633c-1.894,1.7-2.865,4.47-2.865,8.113V39.641h4.081V18.653h5.684V14.718h-5.684v-.972c0-1.7.291-3.983,1.554-5.149a5.2,5.2,0,0,1,4.226-1.118V3.738A8.408,8.408,0,0,0,99.975,5.633ZM127.39,29.779a6.342,6.342,0,1,1-12.681,0V14.621h-4.081V29.779a10.446,10.446,0,0,0,20.891,0V14.621H127.39Zm32.41-5.49L140.61,32.4a8.546,8.546,0,0,0,7.239,3.935,8.1,8.1,0,0,0,7.628-4.469h4.275a11.95,11.95,0,0,1-11.9,8.356,12.807,12.807,0,0,1-12.826-13.069c0-7.239,5.635-13.166,12.583-13.166A12.647,12.647,0,0,1,159.8,24.289ZM154.748,22.3a8.448,8.448,0,0,0-7.142-4.421,8.9,8.9,0,0,0-8.453,9.231,9.257,9.257,0,0,0,.145,1.7Zm8.575-18.8V39.641h4.129V3.5Z"/>
    <circle class="cls-3" cx="33.722" cy="8.858" r="2.44"/>
    <path class="cls-1" d="M176.652,6.7A3.349,3.349,0,1,1,180,3.348,3.351,3.351,0,0,1,176.652,6.7Zm0-6.192a2.844,2.844,0,1,0,2.842,2.843A2.822,2.822,0,0,0,176.652.505Zm.916,4.77-1-1.516h-.664V5.275h-.537V1.437h1.564a1.194,1.194,0,0,1,1.248,1.169,1.123,1.123,0,0,1-.98,1.137l1.027,1.532Zm-.632-3.364h-1.027V3.269h1.027a.693.693,0,0,0,.695-.663A.7.7,0,0,0,176.936,1.911Z"/>
  </g>
</svg>
