<svg id="Group_22" data-name="Group 22" xmlns="http://www.w3.org/2000/svg" width="259.516" height="43.182" viewBox="0 0 259.516 43.182">
  <path id="Path_12" data-name="Path 12" d="M27.7,72.12,13.573,79.582l2.7-15.558L5,52.911l15.717-2.223L27.7,36.4l6.985,14.288,15.558,2.223L38.974,64.024l2.7,15.558Z" transform="translate(-5 -36.4)" fill="#5bb6ae"/>
  <path id="Path_13" data-name="Path 13" d="M89.043,72.12,75.073,79.582l2.7-15.558L66.5,52.911l15.558-2.223L89.043,36.4l6.985,14.288,15.717,2.223L100.474,64.024l2.7,15.558Z" transform="translate(39.135 -36.4)" fill="#5bb6ae"/>
  <path id="Path_15" data-name="Path 15" d="M89.043,72.12,75.073,79.582l2.7-15.558L66.5,52.911l15.558-2.223L89.043,36.4l6.985,14.288,15.717,2.223L100.474,64.024l2.7,15.558Z" transform="translate(147.77 -36.4)" fill="#5bb6ae"/>
  <path id="Path_14" data-name="Path 14" d="M58.4,72.12,44.432,79.582l2.7-15.558L35.7,52.911l15.717-2.223L58.4,36.4l6.985,14.288L81.1,52.911,69.674,64.024l2.7,15.558Z" transform="translate(17.038 -36.4)" fill="#5bb6ae"/>
  <path id="Path_16" data-name="Path 16" d="M58.4,72.12,44.432,79.582l2.7-15.558L35.7,52.911l15.717-2.223L58.4,36.4l6.985,14.288L81.1,52.911,69.674,64.024l2.7,15.558Z" transform="translate(123.673 -36.4)" fill="#5bb6ae"/>
</svg>
